<?xml version="1.0" encoding="UTF-8" standalone="no"?>
<!-- Created with Inkscape (http://www.inkscape.org/) -->

<svg
   width="1024mm"
   height="1024mm"
   viewBox="0 0 1024 1024"
   version="1.1"
   id="svg1"
   sodipodi:docname="icon_mtm.svg"
   inkscape:version="1.4 (e7c3feb1, 2024-10-09)"
   inkscape:export-filename="icon_mtm_ios.png"
   inkscape:export-xdpi="25.4"
   inkscape:export-ydpi="25.4"
   inkscape:export-batch-path="/Users/alpha/Downloads"
   inkscape:export-batch-name="icon_mtm_android_e1"
   xmlns:inkscape="http://www.inkscape.org/namespaces/inkscape"
   xmlns:sodipodi="http://sodipodi.sourceforge.net/DTD/sodipodi-0.dtd"
   xmlns:xlink="http://www.w3.org/1999/xlink"
   xmlns="http://www.w3.org/2000/svg"
   xmlns:svg="http://www.w3.org/2000/svg">
  <sodipodi:namedview
     id="namedview1"
     pagecolor="#ffffff"
     bordercolor="#000000"
     borderopacity="0.25"
     inkscape:showpageshadow="2"
     inkscape:pageopacity="0.0"
     inkscape:pagecheckerboard="false"
     inkscape:deskcolor="#d1d1d1"
     inkscape:document-units="mm"
     showgrid="false"
     inkscape:zoom="0.1767767"
     inkscape:cx="1790.3943"
     inkscape:cy="2124.1487"
     inkscape:window-width="1712"
     inkscape:window-height="1238"
     inkscape:window-x="64"
     inkscape:window-y="25"
     inkscape:window-maximized="0"
     inkscape:current-layer="layer2"
     inkscape:export-bgcolor="#ffffff00"
     inkscape:clip-to-page="false">
    <inkscape:grid
       id="grid12"
       units="mm"
       originx="0"
       originy="0"
       spacingx="0.99999997"
       spacingy="0.99999997"
       empcolor="#0099e5"
       empopacity="0.30196078"
       color="#0099e5"
       opacity="0.14901961"
       empspacing="5"
       enabled="true"
       visible="false" />
  </sodipodi:namedview>
  <defs
     id="defs1">
    <linearGradient
       id="linearGradient6"
       inkscape:collect="always">
      <stop
         style="stop-color:#0078ff;stop-opacity:0.40000001;"
         offset="0"
         id="stop8" />
      <stop
         style="stop-color:#0078ff;stop-opacity:1;"
         offset="1"
         id="stop7" />
    </linearGradient>
    <linearGradient
       id="swatch6"
       inkscape:swatch="solid">
      <stop
         style="stop-color:#ffffff;stop-opacity:1;"
         offset="0"
         id="stop6" />
    </linearGradient>
    <inkscape:path-effect
       effect="powerstroke"
       message=""
       id="path-effect4"
       is_visible="true"
       lpeversion="1.3"
       scale_width="1"
       interpolator_type="CubicBezierJohan"
       interpolator_beta="0.2"
       start_linecap_type="zerowidth"
       end_linecap_type="zerowidth"
       offset_points="0,18.867925"
       linejoin_type="extrp_arc"
       miter_limit="4"
       not_jump="false"
       sort_points="true" />
    <linearGradient
       inkscape:collect="always"
       xlink:href="#linearGradient6"
       id="linearGradient8"
       x1="511.99991"
       y1="-1.996652"
       x2="511.99994"
       y2="1023.0035"
       gradientUnits="userSpaceOnUse"
       spreadMethod="pad"
       gradientTransform="matrix(0.99902439,0,0,0.99902439,0.49951203,1.9947617)" />
  </defs>
  <g
     inkscape:groupmode="layer"
     id="layer2"
     inkscape:label="Ebene 2"
     style="display:inline;mix-blend-mode:normal;opacity:1">
    <rect
       style="display:inline;opacity:1;mix-blend-mode:overlay;fill:url(#linearGradient8);fill-rule:nonzero;stroke:#ffffff;stroke-width:0.999024;stroke-linecap:round;stroke-linejoin:round"
       id="rect1"
       width="1023.001"
       height="1023.001"
       x="0.4995122"
       y="0.4995122" />
  </g>
  <g
     inkscape:label="Ebene 1"
     inkscape:groupmode="layer"
     id="layer1"
     style="display:inline">
    <circle
       style="display:inline;fill:none;stroke:#ffffff;stroke-width:17.3114;stroke-linecap:round;stroke-linejoin:round;stroke-dasharray:none"
       id="path13"
       cy="512"
       cx="512"
       r="391.3443" />
    <ellipse
       style="fill:none;stroke:#ffffff;stroke-width:17.3114;stroke-linecap:round;stroke-linejoin:round;stroke-dasharray:none"
       id="path13-2"
       cy="512"
       cx="512"
       rx="391.3443"
       ry="336.31152" />
    <ellipse
       style="fill:none;stroke:#ffffff;stroke-width:17.3114;stroke-linecap:round;stroke-linejoin:round;stroke-dasharray:none"
       id="path14"
       ry="328.4133"
       rx="193.12436"
       cy="512"
       cx="512" />
    <ellipse
       style="fill:none;stroke:#ffffff;stroke-width:17.3114;stroke-linecap:round;stroke-linejoin:round;stroke-dasharray:none"
       id="path14-4"
       ry="312.63269"
       rx="151.91942"
       cy="512"
       cx="537.92468" />
    <circle
       style="fill:none;stroke:#ffffff;stroke-width:1.51977;stroke-linecap:round;stroke-linejoin:round;stroke-dasharray:none"
       id="path15"
       cy="729.16718"
       cx="538.63672"
       r="15.315803" />
    <path
       style="fill:none;stroke:#ffffff;stroke-width:30.3956;stroke-linecap:round;stroke-linejoin:round;stroke-dasharray:none"
       id="path16"
       sodipodi:type="arc"
       sodipodi:cx="538.49152"
       sodipodi:cy="728.20398"
       sodipodi:rx="59.94268"
       sodipodi:ry="59.94268"
       sodipodi:start="3.9475835"
       sodipodi:end="5.4717196"
       sodipodi:arc-type="arc"
       d="m 496.9874,684.95431 a 59.94268,59.94268 0 0 1 82.77082,-0.22658"
       sodipodi:open="true" />
    <path
       style="fill:none;stroke:#ffffff;stroke-width:30.3956;stroke-linecap:round;stroke-linejoin:round;stroke-dasharray:none"
       id="path17"
       sodipodi:type="arc"
       sodipodi:cx="538.49152"
       sodipodi:cy="729.29236"
       sodipodi:rx="120.28152"
       sodipodi:ry="120.28152"
       sodipodi:start="3.8352917"
       sodipodi:end="5.5854099"
       sodipodi:open="true"
       sodipodi:arc-type="arc"
       d="m 446.00872,652.38608 a 120.28152,120.28152 0 0 1 92.23764,-43.37499 120.28152,120.28152 0 0 1 92.41369,42.99863" />
    <path
       style="fill:#ffffff;stroke:#ffffff;stroke-width:1.45447;stroke-linecap:round;stroke-linejoin:round;stroke-dasharray:none"
       d="m 538.09995,713.48421 c -9.57174,-0.174 -17.07363,10.62905 -14.28299,19.64129 1.91386,8.03708 10.65418,13.61723 18.73259,11.64256 7.41066,-1.45731 13.35894,-8.76399 12.44447,-16.41685 0.22997,-6.91647 -5.47165,-13.12303 -11.96793,-14.73398 -1.6324,-0.20396 -3.28554,-0.12159 -4.92614,-0.13299 z"
       id="path18" />
    <path
       style="display:inline;mix-blend-mode:normal;fill:none;fill-rule:nonzero;stroke:#ffffff;stroke-width:4.49853;stroke-linecap:round;stroke-linejoin:round;stroke-dasharray:none;stroke-opacity:1"
       d="m 740,675 v 30 h 10 v -30 l 10,10 -15,-45 -15,45 z"
       id="path4"
       inkscape:path-effect="#path-effect4"
       inkscape:original-d="m 740,675 v 30 h 10 v -30 l 10,10 -15,-45 -15,45 z"
       inkscape:linked-fill="path5"
       sodipodi:nodetypes="cccccccc"
       transform="matrix(2.5223483,2.9282395,-2.7069529,2.7285436,476.34642,-3595.9296)" />
    <path
       style="fill:#ffffff;stroke:#ffffff;stroke-width:8.65571;stroke-linecap:round;stroke-linejoin:round;stroke-dasharray:none"
       d="m 508.30094,191.9137 c -31.98466,0.60027 -61.67722,17.06646 -84.4285,38.68327 -34.97054,33.44334 -57.48029,77.74475 -72.64639,123.1862 -23.68552,72.5162 -29.17294,150.34344 -20.15032,225.89218 7.89554,60.46331 25.17465,120.90091 58.69637,172.36829 20.93633,31.74724 49.20994,60.70122 85.61989,73.88443 13.58995,5.00896 28.3863,7.11451 42.71887,5.80955 -0.24141,-3.00134 -5.53899,-2.42663 -7.84009,-3.92574 -27.54252,-9.61865 -48.81477,-31.35062 -65.46236,-54.47206 -26.92488,-39.48299 -43.02555,-85.36865 -53.22334,-131.71484 -15.78863,-73.84209 -17.54786,-150.68268 -6.3017,-225.28227 8.57984,-53.97806 23.72049,-107.90575 52.43389,-154.84734 17.10069,-27.56614 40.31649,-53.16828 71.31112,-64.88925 3.39552,-1.53884 7.32552,-1.96441 10.51461,-3.75495 -1.46444,-2.93376 -6.97673,-0.23381 -9.94228,-0.97745 -0.43325,0.0133 -0.86653,0.0267 -1.29977,0.04 z"
       id="path19" />
    <path
       style="fill:#ffffff;stroke:#ffffff;stroke-width:17.3114;stroke-linecap:round;stroke-linejoin:round;stroke-dasharray:none"
       d="m 506.7486,129.15876 c -33.49847,-0.46361 -66.82578,5.09422 -99.04182,13.99249 -82.8805,23.10866 -157.10936,75.38131 -207.10412,145.37139 -4.05206,6.06189 -8.95167,11.76451 -12.05808,18.35724 1.41275,2.606 3.58536,-1.64822 4.89232,-2.51384 54.99617,-62.69222 131.27008,-104.70591 211.91039,-124.03726 115.45926,-27.65256 242.44332,-9.59692 343.11544,54.39405 24.77353,15.58906 47.7288,34.0005 68.14849,54.99703 6.27051,5.88808 11.71032,12.60536 17.81731,18.62506 2.97842,0.21823 0.3185,-3.30694 -0.43704,-4.41735 -42.37658,-65.53978 -105.09466,-117.77538 -177.56168,-146.90038 -39.41548,-16.01327 -81.50947,-25.89388 -124.0633,-27.6774 -8.53708,-0.22832 -17.07854,-0.21426 -25.61791,-0.19103 z"
       id="path20" />
    <path
       style="fill:#ffffff;stroke:#ffffff;stroke-width:17.3114;stroke-linecap:round;stroke-linejoin:round;stroke-dasharray:none"
       d="m 189.40362,715.93643 c -2.04721,1.6589 1.28852,4.26913 1.88694,6.0388 46.79641,71.95765 118.63167,127.13851 200.21951,153.80971 59.43515,19.6699 123.70521,24.85518 185.40693,13.8947 85.11193,-14.17948 164.62349,-58.60027 221.74024,-123.21111 13.12125,-15.03558 25.70439,-30.74456 35.92059,-47.90818 -0.50811,-2.98638 -3.31715,0.54561 -4.25341,1.52323 -30.45131,34.05706 -66.99413,62.51239 -107.22351,84.09667 -40.96489,21.59383 -85.05948,37.11898 -130.69316,45.00729 -118.90021,21.2125 -247.24527,-5.48031 -344.13863,-78.81058 -21.29344,-15.85106 -40.2467,-34.63158 -58.01153,-54.26213 -0.24873,-0.16107 -0.55797,-0.25116 -0.85397,-0.1784 z"
       id="path21" />
    <path
       style="fill:#ffffff;stroke:#ffffff;stroke-width:8.65571;stroke-linecap:round;stroke-linejoin:round;stroke-dasharray:none"
       d="m 602.43019,351.46367 c -34.04414,16.26478 -67.82111,33.11921 -101.41648,50.29709 -2.16816,2.09666 2.05623,2.46987 3.43992,2.32785 5.66124,0.61747 12.77344,-1.25393 17.12118,3.42222 2.03701,2.92868 2.78089,7.15214 -0.1923,9.80361 -13.70707,15.75981 -29.14766,29.92638 -43.61938,44.97594 -10.61405,10.97385 -21.85713,21.5615 -32.03662,32.81429 3.99927,5.68295 9.19337,10.88841 13.64874,16.38837 3.33764,-0.0224 5.36802,-4.97717 8.19016,-6.84747 23.43612,-23.3783 46.39714,-47.32337 70.34243,-70.13276 3.57328,-1.52784 7.33041,-0.0174 9.44443,3.0871 1.94227,3.22964 0.36591,7.91962 0.88378,11.74039 0.65732,3.37281 -1.29804,8.42798 0.98864,10.81341 3.56969,-4.57869 5.62778,-10.85097 8.62498,-16.0687 15.2597,-30.48664 30.84951,-60.81678 45.74698,-91.47892 0.18907,-0.70965 -0.52633,-1.31982 -1.16646,-1.14242 z"
       id="path22" />
  </g>
</svg>
